<svg xmlns="http://www.w3.org/2000/svg" xmlns:xlink="http://www.w3.org/1999/xlink" width="869.4" height="224.814" viewBox="0 0 869.4 224.814">
  <defs>
    <radialGradient id="radial-gradient" cx="532.103" cy="-160.717" fy="-171.56278036002186" r="22.483" gradientTransform="translate(-1.757 0.955) scale(0.989 0.989)" gradientUnits="userSpaceOnUse">
      <stop offset="0" stop-color="#ff6cbd"/>
      <stop offset="1" stop-color="#ff007f"/>
    </radialGradient>
  </defs>
  <g id="Логотип_май_2019-02" data-name="Логотип май 2019-02" transform="translate(25 249.814)">
    <path id="Path_6374" data-name="Path 6374" d="M164.3-74h-43l24.3-110.3L79-74H60L42.2-184.3,18-74H-25L11.8-240.7H70l14.5,92.2,55.3-92.2H201Z" fill="#fff"/>
    <path id="Path_6376" data-name="Path 6376" d="M246.3-197.7c16.5,0,28.8,5.8,36.8,17.3l3.3-14.3h38.2L297.8-74H259.5l3-14c-9.8,11.3-21.3,17-34.5,17-13.8,0-24.8-4.4-33-13.1s-12.3-21-12.3-36.9a93.384,93.384,0,0,1,6.9-35.4,71.094,71.094,0,0,1,21.8-29.3C221.3-193.7,232.9-197.7,246.3-197.7Zm6.7,34a27.956,27.956,0,0,0-21.9,10.1c-5.8,6.7-8.6,15-8.6,24.6,0,7.2,2.3,13,6.8,17.4a22.912,22.912,0,0,0,16.8,6.6c8.8,0,16.4-3.8,22.8-11.3l8.3-36.5C271.3-160.1,263.3-163.7,253-163.7Z" fill="#fff"/>
    <path id="Path_6377" data-name="Path 6377" d="M299-25c-16.3,0-28.3-3.3-36-10l15.5-27.5c3.5,4,8.4,6,14.8,6,9,0,14.9-6.2,17.8-18.5l26.8-119.8h38.5L349.5-75Q338.7-25.05,299-25Zm62.8-180.5a19.67,19.67,0,0,1-14.4-5.6,17.825,17.825,0,0,1-5.6-13.4c0-7.7,2.6-13.8,7.9-18.4s11-6.9,17.1-6.9a18.906,18.906,0,0,1,14.1,5.5,17.757,17.757,0,0,1,5.6,13.2c0,7.7-2.6,13.8-7.8,18.5S367.9-205.5,361.8-205.5Z" fill="#fff"/>
    <path id="Path_6378" data-name="Path 6378" d="M431.5-71q-29.25,0-46.8-14.5c-11.7-9.7-17.5-23.1-17.5-40.3q0-29.7,20.1-50.9c13.4-14.1,30.3-21.2,50.6-21.1,15.8,0,29,4.8,39.6,14.5s15.9,23,15.9,40a92.761,92.761,0,0,1-2.5,21H405.4v1.5c0,4,2.6,8.3,7.9,13s12.3,7,21.1,7c12,0,21.4-2.5,28.3-7.5l11.8,25.5C463-74.9,448.7-71,431.5-71Zm-22.2-76.2h50a2.885,2.885,0,0,0,.3-1.8c0-4.7-2-9-5.9-13s-9.7-6-17.4-6a26.444,26.444,0,0,0-17.8,6.5C413.5-157.2,410.4-152.4,409.3-147.2Z" fill="#fff"/>
    <path id="Path_6379" data-name="Path 6379" d="M540.2-71a94.632,94.632,0,0,1-32.9-5.8,75.074,75.074,0,0,1-26.9-16.3l20.3-24.8c4.3,4.5,10.6,8.8,18.9,12.8s16.3,6,24.1,6c3.8,0,6.9-.8,9.3-2.5a7.612,7.612,0,0,0,3.5-6.3c0-3.3-3.1-6.3-9.4-8.8a182.929,182.929,0,0,0-20.6-6.6,49.262,49.262,0,0,1-20.6-11.1,26.744,26.744,0,0,1-9.4-21c0-11.7,4.6-21.7,13.9-30s21.9-12.5,37.9-12.5a87.179,87.179,0,0,1,29.5,5.1,69.648,69.648,0,0,1,24.3,14.4l-18.5,23.8c-3.5-3.8-8.6-7.3-15.3-10.4a46.149,46.149,0,0,0-20-4.6c-4.2,0-7.5.8-9.9,2.5s-3.6,3.7-3.6,6,2.1,4.4,6.3,6.1a116.577,116.577,0,0,0,15.1,5.1,136.506,136.506,0,0,1,17.6,6.3,41.119,41.119,0,0,1,15,11.1,26.694,26.694,0,0,1,6.3,17.9c0,12.5-5,22.9-14.9,31.1C570.2-75.1,556.9-71,540.2-71Z" fill="#fff"/>
    <path id="Path_6380" data-name="Path 6380" d="M645.2-71c-12.2,0-21.9-2.4-29.1-7.1S605.2-90,605.2-99.5a65.405,65.405,0,0,1,.8-8.8l11.8-53.3h-20l7.5-33.3h20l7.3-33H671l-7.3,33h24.5l-7.5,33.3H656.2l-9,41a20.317,20.317,0,0,0-.8,5.5c0,6.7,3.8,10,11.5,10,3.3,0,5.8-.7,7.5-2l.5,30.8C661.5-72.7,654.6-71,645.2-71Z" fill="#fff"/>
    <path id="Path_6381" data-name="Path 6381" d="M692.2-194.7,665.5-74H704l26.8-120.8-38.6.1Z" fill="#fff"/>
    <path id="Path_6382" data-name="Path 6382" d="M741-231c0,7.7-2.6,13.8-7.8,18.5s-10.8,7-17,7a19.67,19.67,0,0,1-14.4-5.6,17.825,17.825,0,0,1-5.6-13.4c0-7.7,2.6-13.8,7.9-18.4s11-6.9,17.1-6.9a18.905,18.905,0,0,1,14.1,5.5A17.7,17.7,0,0,1,741-231Z" fill="url(#radial-gradient)"/>
    <path id="Path_6383" data-name="Path 6383" d="M783.2-71q-28.05,0-44.8-15.4c-11.2-10.3-16.8-23.6-16.8-40.1q0-30,20.6-50.6,20.55-20.55,50.9-20.6,36.45,0,51.3,24.5l-28.8,21.8q-7.5-12.3-22.8-12.3a29.9,29.9,0,0,0-23.1,10.1c-6.1,6.8-9.1,15-9.1,24.9q0,10.95,7.5,17.4c5,4.3,11.3,6.4,18.8,6.4q13.2,0,22.8-10.8l20.8,25.3q-7.5,7.95-19.8,13.8A66.691,66.691,0,0,1,783.2-71Z" fill="#fff"/>
  </g>
</svg>
