<svg width="43" height="48" viewBox="0 0 43 48" fill="none" xmlns="http://www.w3.org/2000/svg">
<g filter="url(#filter0_d)">
<path d="M27 26.354C27 29.8188 24.8752 32 21.5 32C18.1248 32 16 29.8188 16 26.354C16 22.6358 19.9428 17.6164 21.152 16.1645C21.1951 16.1129 21.2485 16.0715 21.3086 16.0431C21.3687 16.0147 21.434 16 21.5002 16C21.5663 16 21.6317 16.0147 21.6918 16.0431C21.7519 16.0715 21.8053 16.1129 21.8483 16.1645C23.0572 17.6164 27 22.6358 27 26.354Z" stroke="#06F0FF" stroke-miterlimit="10"/>
</g>
<path d="M25 28C25 28.5304 24.6839 29.0391 24.1213 29.4142C23.5587 29.7893 22.7956 30 22 30" stroke="#06F0FF" stroke-linecap="round" stroke-linejoin="round"/>
<defs>
<filter id="filter0_d" x="0.5" y="0.5" width="42" height="47" filterUnits="userSpaceOnUse" color-interpolation-filters="sRGB">
<feFlood flood-opacity="0" result="BackgroundImageFix"/>
<feColorMatrix in="SourceAlpha" type="matrix" values="0 0 0 0 0 0 0 0 0 0 0 0 0 0 0 0 0 0 127 0"/>
<feOffset/>
<feGaussianBlur stdDeviation="7.5"/>
<feColorMatrix type="matrix" values="0 0 0 0 0.025 0 0 0 0 0.9415 0 0 0 0 1 0 0 0 1 0"/>
<feBlend mode="normal" in2="BackgroundImageFix" result="effect1_dropShadow"/>
<feBlend mode="normal" in="SourceGraphic" in2="effect1_dropShadow" result="shape"/>
</filter>
</defs>
</svg>
