<svg width="11" height="9" viewBox="0 0 11 9" fill="none" xmlns="http://www.w3.org/2000/svg">
<path d="M3.08923 1.61741C3.0904 1.61741 3.09148 1.61806 3.09204 1.61909C3.57434 2.5068 3.82002 3.43642 3.81976 4.37209V5.91841C3.81976 5.9491 3.79987 5.9785 3.76447 6.00026C3.72908 6.02196 3.68104 6.03415 3.63098 6.03415H2.1888C2.08455 6.03415 2.00002 5.98233 2.00002 5.91841V4.37209C1.99977 3.43582 2.24586 2.50566 2.72864 1.61741C2.7541 1.56993 2.82649 1.53784 2.90798 1.53784C2.98859 1.53784 3.06016 1.56918 3.08639 1.61574C3.08697 1.61677 3.08805 1.61741 3.08923 1.61741V1.61741ZM5.54519 1.53872C5.46403 1.53862 5.39181 1.57029 5.36586 1.61741C4.88296 2.50563 4.63697 3.43583 4.63723 4.37209V5.91841C4.63723 5.9491 4.65712 5.9785 4.69252 6.00026C4.72791 6.02196 4.77595 6.03415 4.82601 6.03415H6.26448H6.2644C6.31446 6.03415 6.36249 6.02196 6.39789 6.00026C6.43328 5.9785 6.45317 5.9491 6.45317 5.91841V4.37209C6.45646 3.43612 6.21366 2.50605 5.73398 1.61741C5.70701 1.56817 5.62981 1.53603 5.5452 1.53872H5.54519ZM8.3617 1.61741C8.3617 1.61741 8.36169 1.61741 8.36169 1.6174C8.33623 1.56993 8.26384 1.53784 8.18236 1.53784C8.10078 1.53784 8.02847 1.56993 8.00302 1.61741C7.52013 2.50563 7.27414 3.43583 7.27431 4.37209V5.91841C7.27431 5.9491 7.2942 5.9785 7.3296 6.00026C7.36508 6.02196 7.41303 6.03415 7.46309 6.03415H8.90156C8.95162 6.03415 8.99966 6.02196 9.03505 6.00026C9.07045 5.9785 9.09034 5.9491 9.09034 5.91841V4.37209C9.09059 3.43582 8.8445 2.50566 8.36172 1.61742C8.36172 1.61742 8.36171 1.61741 8.3617 1.61741V1.61741ZM3.62724 6.24538C3.62724 6.24634 3.62647 6.24712 3.62552 6.24712H2.18877C2.08453 6.24712 2 6.29894 2 6.36286V6.94157C2.00295 7.01324 2.05132 7.08134 2.13484 7.13151C2.21835 7.18163 2.33052 7.20984 2.4474 7.2101H3.36674H3.36666C3.48548 7.2101 3.59951 7.18122 3.68369 7.12981C3.76788 7.07844 3.8155 7.00864 3.816 6.93578V6.35707C3.81391 6.29444 3.7309 6.24422 3.62897 6.24366C3.62801 6.24365 3.62723 6.24443 3.62724 6.24538V6.24538ZM6.26721 6.24538C6.26802 6.24587 6.26767 6.24712 6.26672 6.24712H4.82595C4.72162 6.24712 4.63718 6.29894 4.63718 6.36286V6.94157C4.64013 7.01324 4.6885 7.08134 4.77202 7.13151C4.85553 7.18163 4.96762 7.20984 5.0845 7.2101H6.00578C6.12427 7.20979 6.23778 7.1808 6.32156 7.12944C6.40532 7.07803 6.45269 7.00843 6.45311 6.93578V6.35706C6.45111 6.29477 6.36898 6.24475 6.2677 6.24366C6.26676 6.24365 6.2664 6.24489 6.26721 6.24538V6.24538ZM8.90723 6.24539C8.9082 6.24568 8.90799 6.24712 8.90697 6.24712H7.46307C7.35882 6.24712 7.27429 6.29894 7.27429 6.36286V6.94157C7.27724 7.01345 7.32595 7.08171 7.40989 7.13188C7.49383 7.18205 7.60642 7.21011 7.72364 7.21011H8.64298H8.6429C8.76147 7.2098 8.8749 7.18081 8.95876 7.12945C9.04253 7.07804 9.08981 7.00844 9.09031 6.93579V6.35707C9.08833 6.29531 9.00758 6.24561 8.9075 6.24371C8.90648 6.24369 8.90625 6.24509 8.90723 6.24539V6.24539Z" fill="white"/>
</svg>
