<svg width="12" height="9" viewBox="0 0 12 9" fill="none" xmlns="http://www.w3.org/2000/svg">
<path d="M9.19447 0H1.84827C1.35826 0.000586957 0.888484 0.195503 0.541993 0.541993C0.195503 0.888484 0.000586957 1.35826 0 1.84827V6.65953C0.000586957 7.14954 0.195503 7.61932 0.541993 7.96581C0.888484 8.3123 1.35826 8.50721 1.84827 8.5078H9.19447C9.68448 8.50721 10.1543 8.3123 10.5007 7.96581C10.8472 7.61932 11.0421 7.14954 11.0427 6.65953V1.84827C11.0421 1.35826 10.8472 0.888484 10.5007 0.541993C10.1543 0.195503 9.68448 0.000586957 9.19447 0ZM1.84827 0.739307H9.19447C9.48849 0.73962 9.77037 0.856558 9.97828 1.06446C10.1862 1.27236 10.3031 1.55425 10.3034 1.84827V2.33311H0.739307V1.84827C0.73962 1.55425 0.856558 1.27236 1.06446 1.06446C1.27236 0.856558 1.55425 0.73962 1.84827 0.739307ZM9.19447 7.76849H1.84827C1.55425 7.76818 1.27236 7.65124 1.06446 7.44334C0.856558 7.23544 0.73962 6.95355 0.739307 6.65953V3.07241H10.3034V6.65953C10.3031 6.95355 10.1862 7.23544 9.97828 7.44334C9.77037 7.65124 9.48849 7.76818 9.19447 7.76849ZM9.29302 6.0397C9.29302 6.13773 9.25407 6.23176 9.18475 6.30108C9.11543 6.3704 9.0214 6.40935 8.92336 6.40935H8.03708C7.93904 6.40935 7.84502 6.3704 7.7757 6.30108C7.70637 6.23176 7.66743 6.13773 7.66743 6.0397C7.66743 5.94166 7.70637 5.84764 7.7757 5.77831C7.84502 5.70899 7.93904 5.67004 8.03708 5.67004H8.92336C9.0214 5.67004 9.11543 5.70899 9.18475 5.77831C9.25407 5.84764 9.29302 5.94166 9.29302 6.0397Z" fill="white" fill-opacity="0.5"/>
</svg>
