<svg width="35" height="35" viewBox="0 0 35 35" fill="none" xmlns="http://www.w3.org/2000/svg">
<circle cx="17.5" cy="17.5" r="17.5" fill="#191717" fill-opacity="0.7"/>
<path d="M17.1827 14.094C17.1146 14.094 17.0472 14.1075 16.9843 14.1338C16.9215 14.1601 16.8643 14.1987 16.8162 14.2473C16.7681 14.2959 16.7299 14.3536 16.7038 14.4172C16.6778 14.4807 16.6644 14.5488 16.6644 14.6175V16.7115H15.6279C15.4904 16.7115 15.3586 16.7667 15.2614 16.8649C15.1642 16.963 15.1096 17.0962 15.1096 17.235C15.1096 17.3739 15.1642 17.507 15.2614 17.6052C15.3586 17.7034 15.4904 17.7585 15.6279 17.7585H17.1827C17.2508 17.7586 17.3182 17.745 17.381 17.7187C17.4439 17.6924 17.5011 17.6539 17.5492 17.6053C17.5973 17.5566 17.6355 17.4989 17.6615 17.4354C17.6876 17.3719 17.701 17.3038 17.701 17.235V14.6175C17.701 14.5488 17.6876 14.4807 17.6615 14.4172C17.6355 14.3536 17.5973 14.2959 17.5492 14.2473C17.5011 14.1987 17.4439 14.1601 17.381 14.1338C17.3182 14.1075 17.2508 14.094 17.1827 14.094ZM17.1827 12C16.1577 12 15.1556 12.307 14.3033 12.8823C13.4511 13.4575 12.7868 14.2751 12.3945 15.2317C12.0022 16.1883 11.8996 17.2408 12.0996 18.2563C12.2996 19.2718 12.7932 20.2046 13.518 20.9368C14.2428 21.6689 15.1663 22.1675 16.1716 22.3695C17.1769 22.5715 18.219 22.4678 19.166 22.0716C20.113 21.6754 20.9225 21.0044 21.4919 20.1435C22.0614 19.2826 22.3654 18.2704 22.3654 17.235C22.3638 15.8471 21.8173 14.5165 20.8457 13.5351C19.8741 12.5536 18.5567 12.0016 17.1827 12ZM17.1827 21.4231C16.3627 21.4231 15.561 21.1775 14.8792 20.7173C14.1974 20.2571 13.666 19.603 13.3521 18.8377C13.0383 18.0725 12.9562 17.2304 13.1162 16.418C13.2762 15.6056 13.6711 14.8594 14.2509 14.2737C14.8308 13.6879 15.5695 13.2891 16.3738 13.1275C17.1781 12.9659 18.0117 13.0488 18.7694 13.3658C19.527 13.6828 20.1745 14.2196 20.6301 14.9083C21.0857 15.597 21.3288 16.4067 21.3288 17.235C21.3276 18.3454 20.8904 19.4099 20.1131 20.195C19.3358 20.9802 18.2819 21.4218 17.1827 21.4231Z" fill="white"/>
</svg>
