<svg width="12" height="9" viewBox="0 0 12 9" fill="none" xmlns="http://www.w3.org/2000/svg">
<path fill-rule="evenodd" clip-rule="evenodd" d="M4.25586 8.7726L3.11523 7.66223H2.33008C2.05566 7.66223 1.83105 7.44339 1.83105 7.17602V6.34824H1.35547V7.31684C1.35547 7.52331 1.18164 7.69267 0.969727 7.69267H0.385742C0.173828 7.69267 0 7.52331 0 7.31684V4.03425C0 3.82778 0.173828 3.65842 0.385742 3.65842H0.969727C1.18164 3.65842 1.35547 3.82778 1.35547 4.03425V5.00285H1.83105V4.11227C1.83105 3.84491 2.05566 3.62607 2.33008 3.62607H3.16406L4.34277 2.40533C4.47949 2.28925 4.66113 2.24833 4.87305 2.2569H9.72949C9.89746 2.27498 10.0254 2.33777 10.1035 2.45576C10.1816 2.57184 10.1689 2.63749 10.1689 2.76784V5.00285H10.6445V4.03425C10.6445 3.82778 10.8184 3.65842 11.0303 3.65842H11.6143C11.8262 3.65842 12 3.82778 12 4.03425V7.31684C12 7.52331 11.8262 7.69267 11.6143 7.69267H11.0303C10.8184 7.69267 10.6445 7.52331 10.6445 7.31684V6.34824H10.1689V6.43578C10.1689 6.69553 10.1768 6.85252 10.0068 7.06755C9.97461 7.10847 9.93848 7.14748 9.89844 7.18363L8.15723 8.84491C8.07031 8.93911 7.93848 8.99049 7.76465 9H4.7959C4.57422 8.99049 4.39355 8.91627 4.25586 8.7726ZM6.22168 5.87821L4.9873 5.76499L6.01074 3.5804H7.41016L6.61621 4.83349L8.04395 4.98763L5.42285 8.05328L6.22168 5.87821ZM5.07617 0H8.44531C8.65723 0 8.83105 0.169363 8.83105 0.375833V0.944815C8.83105 1.15128 8.65723 1.32065 8.44531 1.32065H7.45117V1.79924H6.07031V1.32065H5.07617C4.86426 1.32065 4.69043 1.15128 4.69043 0.944815V0.375833C4.69043 0.169363 4.86426 0 5.07617 0Z" fill="white" fill-opacity="0.5"/>
</svg>
