<svg width="44" height="43" viewBox="0 0 44 43" fill="none" xmlns="http://www.w3.org/2000/svg">
<path fill-rule="evenodd" clip-rule="evenodd" d="M41.6639 25.2626C41.9413 23.8995 42.087 22.4885 42.087 21.0435C42.087 9.42149 32.6655 0 21.0435 0C9.42149 0 0 9.42149 0 21.0435C0 32.6655 9.42149 42.087 21.0435 42.087C23.7862 42.087 26.4064 41.5622 28.8091 40.6077C28.1232 39.1728 27.7391 37.5661 27.7391 35.8696C27.7391 29.7944 32.664 24.8696 38.7391 24.8696C39.7518 24.8696 40.7326 25.0064 41.6639 25.2626Z" fill="#262626" fill-opacity="0.67"/>
<circle cx="38.7389" cy="35.8696" r="5.26087" fill="#81FF46"/>
<path d="M20.9414 25.6164V28.087" stroke="white" stroke-linecap="round" stroke-linejoin="round"/>
<path d="M22.2325 22.8387C21.7669 23.278 21.1594 23.5211 20.5294 23.5201C19.8579 23.5201 19.214 23.2441 18.7392 22.7527C18.2644 22.2612 17.9976 21.5948 17.9976 20.8998V18.0175M23.595 24.3898C22.9736 24.9744 22.2082 25.37 21.3833 25.5328C20.5584 25.6957 19.7061 25.6195 18.9204 25.3127C18.1347 25.0059 17.4462 24.4803 16.9308 23.7941C16.4155 23.1079 16.0934 22.2876 16 21.4239M25.0588 21.4239C25.0051 21.9288 24.8723 22.4213 24.6658 22.8821M18.3748 15.3306C18.6015 14.9502 18.9186 14.6363 19.2957 14.4186C19.6729 14.2009 20.0976 14.0867 20.5294 14.087C20.8619 14.087 21.1911 14.1548 21.4983 14.2864C21.8055 14.4181 22.0846 14.6111 22.3197 14.8544C22.5548 15.0978 22.7412 15.3866 22.8685 15.7045C22.9957 16.0225 23.0612 16.3632 23.0612 16.7073V20.6659" stroke="white" stroke-linecap="round" stroke-linejoin="round"/>
</svg>
