<svg width="10" height="10" viewBox="0 0 10 10" fill="none" xmlns="http://www.w3.org/2000/svg">
<g clip-path="url(#clip0_23_154)">
<path d="M6.24358 0.34209C6.20733 0.14375 6.03483 0 5.83358 0C2.61692 0 0.000244141 2.24291 0.000244141 5C0.000244141 7.75666 2.6169 10 5.83358 10C6.03483 10 6.20733 9.85584 6.24358 9.6575L6.28649 9.42209C6.79565 6.42668 6.79524 3.44959 6.28565 0.57293L6.24358 0.34209Z" fill="white"/>
<path d="M7.91666 1.66653H9.58332C9.81373 1.66653 9.99998 1.47987 9.99998 1.24987C9.99998 1.01987 9.81375 0.833191 9.58332 0.833191H7.91666C7.68625 0.833191 7.5 1.01985 7.5 1.24985C7.5 1.47985 7.68625 1.66653 7.91666 1.66653Z" fill="white"/>
<path d="M9.58332 3.33319H7.91666C7.68625 3.33319 7.5 3.51985 7.5 3.74985C7.5 3.97985 7.68625 4.16651 7.91666 4.16651H9.58332C9.81373 4.16651 9.99998 3.97985 9.99998 3.74985C9.99998 3.51985 9.81375 3.33319 9.58332 3.33319Z" fill="white"/>
<path d="M9.58332 5.83319H7.91666C7.68625 5.83319 7.5 6.01985 7.5 6.24985C7.5 6.47985 7.68625 6.66651 7.91666 6.66651H9.58332C9.81373 6.66651 9.99998 6.47985 9.99998 6.24985C9.99998 6.01985 9.81375 5.83319 9.58332 5.83319Z" fill="white"/>
<path d="M9.58332 8.33319H7.91666C7.68625 8.33319 7.5 8.51985 7.5 8.74985C7.5 8.97985 7.68625 9.16651 7.91666 9.16651H9.58332C9.81373 9.16651 9.99998 8.97985 9.99998 8.74985C9.99998 8.51985 9.81375 8.33319 9.58332 8.33319Z" fill="white"/>
</g>
<defs>
<clipPath id="clip0_23_154">
<rect width="10" height="10" fill="white"/>
</clipPath>
</defs>
</svg>
