<svg width="10" height="12" viewBox="0 0 10 12" fill="none" xmlns="http://www.w3.org/2000/svg">
<path d="M1.25 4.5H2V3C2 1.34325 3.34325 0 5 0C6.65675 0 8 1.34325 8 3V4.5H8.75C9.16456 4.5 9.5 4.83544 9.5 5.25V11.25C9.5 11.6646 9.16456 12 8.75 12H1.25C0.835438 12 0.5 11.6646 0.5 11.25V5.25C0.5 4.83544 0.835438 4.5 1.25 4.5ZM5 9C5.41456 9 5.75 8.66456 5.75 8.25C5.75 7.83544 5.41456 7.5 5 7.5C4.58544 7.5 4.25 7.83544 4.25 8.25C4.25 8.66456 4.58544 9 5 9ZM3.5 4.5H6.5V3C6.5 2.17162 5.82838 1.5 5 1.5C4.17163 1.5 3.5 2.17162 3.5 3V4.5Z" fill="white" fill-opacity="0.5"/>
</svg>
