<svg width="44" height="43" viewBox="0 0 44 43" fill="none" xmlns="http://www.w3.org/2000/svg">
<path fill-rule="evenodd" clip-rule="evenodd" d="M41.6639 26.1757C41.9413 24.8126 42.087 23.4015 42.087 21.9565C42.087 10.3345 32.6655 0.913025 21.0435 0.913025C9.42149 0.913025 0 10.3345 0 21.9565C0 33.5785 9.42149 43 21.0435 43C23.7862 43 26.4064 42.4753 28.8091 41.5208C28.1232 40.0859 27.7391 38.4791 27.7391 36.7826C27.7391 30.7075 32.664 25.7826 38.7391 25.7826C39.7518 25.7826 40.7326 25.9194 41.6639 26.1757Z" fill="#262626" fill-opacity="0.67"/>
<circle cx="38.7389" cy="36.7826" r="5.26087" fill="#FF4646"/>
<path d="M20.9414 26.5294V29" stroke="white" stroke-linecap="round" stroke-linejoin="round"/>
<path d="M16.0293 15.8235L26.7352 28.1765" stroke="white" stroke-linecap="round" stroke-linejoin="round"/>
<path d="M22.2325 23.7517C21.7669 24.191 21.1594 24.4341 20.5294 24.4332C19.8579 24.4332 19.214 24.1571 18.7392 23.6657C18.2644 23.1743 17.9976 22.5078 17.9976 21.8128V18.9305M23.595 25.3028C22.9736 25.8875 22.2082 26.283 21.3833 26.4459C20.5584 26.6087 19.7061 26.5325 18.9204 26.2257C18.1347 25.9189 17.4462 25.3933 16.9308 24.7071C16.4155 24.0209 16.0934 23.2006 16 22.3369M25.0588 22.3369C25.0051 22.8418 24.8723 23.3343 24.6658 23.7952M18.3748 16.2436C18.6015 15.8633 18.9186 15.5493 19.2957 15.3316C19.6729 15.1139 20.0976 14.9998 20.5294 15C20.8619 15 21.1911 15.0678 21.4983 15.1995C21.8055 15.3311 22.0846 15.5242 22.3197 15.7675C22.5548 16.0108 22.7412 16.2997 22.8685 16.6176C22.9957 16.9355 23.0612 17.2762 23.0612 17.6203V21.5789" stroke="white" stroke-linecap="round" stroke-linejoin="round"/>
</svg>
