<svg width="15" height="14" viewBox="0 0 15 14" fill="none" xmlns="http://www.w3.org/2000/svg">
<path d="M13.1355 7.0954C12.9921 7.0954 12.8545 7.03843 12.7531 6.93701C12.6517 6.8356 12.5947 6.69805 12.5947 6.55463V4.9972C12.615 4.69076 12.5138 4.38864 12.313 4.15626C12.1122 3.92389 11.828 3.77994 11.5218 3.75559H2.16431C2.02089 3.75559 1.88334 3.69861 1.78192 3.5972C1.68051 3.49578 1.62354 3.35824 1.62354 3.21481C1.62354 3.07139 1.68051 2.93384 1.78192 2.83243C1.88334 2.73102 2.02089 2.67404 2.16431 2.67404H11.5218C12.1159 2.69547 12.6772 2.95162 13.0827 3.38631C13.4882 3.821 13.7048 4.39875 13.6849 4.99288V6.5503C13.6855 6.62241 13.6717 6.69391 13.6442 6.7606C13.6168 6.82728 13.5762 6.8878 13.525 6.93859C13.4739 6.98938 13.413 7.02942 13.3461 7.05635C13.2792 7.08328 13.2076 7.09656 13.1355 7.0954Z" fill="white"/>
<path d="M11.5219 14H2.16435C1.57027 13.9786 1.00895 13.7224 0.603453 13.2877C0.197959 12.853 -0.0186035 12.2753 0.00125452 11.6812V1.9213C0.00125452 1.77787 0.0582286 1.64033 0.159643 1.53891C0.261058 1.4375 0.398605 1.38052 0.542027 1.38052C0.685449 1.38052 0.822997 1.4375 0.924411 1.53891C1.02583 1.64033 1.0828 1.77787 1.0828 1.9213V11.6812C1.06254 11.9872 1.16387 12.2888 1.36477 12.5205C1.56568 12.7522 1.84991 12.8952 2.15569 12.9185H11.5219C11.8277 12.8952 12.1119 12.7522 12.3128 12.5205C12.5137 12.2888 12.615 11.9872 12.5948 11.6812V10.5823C12.5948 10.4389 12.6517 10.3013 12.7532 10.1999C12.8546 10.0985 12.9921 10.0415 13.1355 10.0415C13.279 10.0415 13.4165 10.0985 13.5179 10.1999C13.6193 10.3013 13.6763 10.4389 13.6763 10.5823V11.6812C13.6962 12.2738 13.4808 12.8503 13.0772 13.2848C12.6735 13.7192 12.1144 13.9763 11.5219 14Z" fill="white"/>
<path d="M11.3011 3.75559C11.1592 3.7556 11.0229 3.69982 10.9217 3.60027C10.8206 3.50072 10.7626 3.36538 10.7603 3.22347V2.02511C10.7502 1.76844 10.639 1.52618 10.451 1.35113C10.263 1.17609 10.0134 1.08247 9.75665 1.09066H1.96953C1.74876 1.08246 1.53375 1.16209 1.37158 1.3121C1.20941 1.46211 1.11329 1.67027 1.10429 1.891C1.11329 2.11173 1.20941 2.3199 1.37158 2.46991C1.53375 2.61991 1.74876 2.69954 1.96953 2.69135H6.72833C6.87175 2.69135 7.0093 2.74832 7.11071 2.84973C7.21212 2.95115 7.2691 3.0887 7.2691 3.23212C7.2691 3.37554 7.21212 3.51309 7.11071 3.6145C7.0093 3.71592 6.87175 3.77289 6.72833 3.77289H1.95655C1.7045 3.7769 1.45414 3.73114 1.21981 3.63824C0.985473 3.54535 0.771766 3.40713 0.590927 3.23152C0.410089 3.0559 0.265672 2.84634 0.165947 2.61483C0.0662215 2.38331 0.0131479 2.1344 0.00976562 1.88235C0.0188681 1.3748 0.228965 0.89159 0.593947 0.538774C0.95893 0.185958 1.44898 -0.00764287 1.95655 0.000460038H9.74368C10.0146 -0.00527392 10.284 0.0426428 10.5364 0.141452C10.7887 0.24026 11.019 0.388009 11.2141 0.576192C11.4091 0.764375 11.565 0.989274 11.6727 1.23794C11.7804 1.48661 11.8379 1.75413 11.8419 2.02511V3.22347C11.8396 3.36538 11.7816 3.50072 11.6805 3.60027C11.5793 3.69982 11.443 3.7556 11.3011 3.75559ZM13.4858 11.1101H10.4878C9.90217 11.1217 9.3359 10.9004 8.9133 10.4949C8.49071 10.0893 8.24633 9.53259 8.23384 8.947V8.16397C8.24633 7.57838 8.49071 7.02168 8.9133 6.61612C9.3359 6.21056 9.90217 5.98928 10.4878 6.00087H13.5161C13.7053 6.00144 13.8925 6.03927 14.0671 6.11219C14.2416 6.18511 14.4001 6.2917 14.5335 6.42588C14.6669 6.56006 14.7725 6.71919 14.8444 6.89419C14.9163 7.06919 14.953 7.25663 14.9524 7.44582V9.69111C14.9456 10.0736 14.7873 10.4378 14.5124 10.7038C14.2375 10.9698 13.8683 11.1159 13.4858 11.1101ZM10.4878 7.08675C10.1897 7.07501 9.89908 7.18172 9.67941 7.38355C9.45974 7.58539 9.32887 7.86595 9.31538 8.16397V8.96863C9.32887 9.26665 9.45974 9.54721 9.67941 9.74905C9.89908 9.95088 10.1897 10.0576 10.4878 10.0459H13.4858C13.5803 10.0459 13.671 10.0086 13.7382 9.94222C13.8054 9.87581 13.8438 9.78559 13.8449 9.69111V7.44582C13.8423 7.35947 13.8067 7.27741 13.7454 7.21653C13.7129 7.18262 13.674 7.15557 13.6309 7.13699C13.5878 7.11841 13.5414 7.10868 13.4945 7.10838L10.4878 7.08675Z" fill="white"/>
<path d="M10.7869 9.10709C11.0855 9.10709 11.3276 8.86498 11.3276 8.56632C11.3276 8.26766 11.0855 8.02554 10.7869 8.02554C10.4882 8.02554 10.2461 8.26766 10.2461 8.56632C10.2461 8.86498 10.4882 9.10709 10.7869 9.10709Z" fill="white"/>
</svg>
