<svg width="24" height="21" viewBox="0 0 24 21" fill="none" xmlns="http://www.w3.org/2000/svg">
<path id="Vector" d="M20.4 4.66667H19.2V3.5C19.2 2.57174 18.8207 1.6815 18.1456 1.02513C17.4705 0.368749 16.5548 0 15.6 0H3.6C2.64522 0 1.72955 0.368749 1.05442 1.02513C0.379285 1.6815 0 2.57174 0 3.5V17.5C0 18.4283 0.379285 19.3185 1.05442 19.9749C1.72955 20.6313 2.64522 21 3.6 21H20.4C21.3548 21 22.2705 20.6313 22.9456 19.9749C23.6207 19.3185 24 18.4283 24 17.5V8.16667C24 7.23841 23.6207 6.34817 22.9456 5.69179C22.2705 5.03542 21.3548 4.66667 20.4 4.66667ZM3.6 2.33333H15.6C15.9183 2.33333 16.2235 2.45625 16.4485 2.67504C16.6736 2.89383 16.8 3.19058 16.8 3.5V4.66667H3.6C3.28174 4.66667 2.97652 4.54375 2.75147 4.32496C2.52643 4.10617 2.4 3.80942 2.4 3.5C2.4 3.19058 2.52643 2.89383 2.75147 2.67504C2.97652 2.45625 3.28174 2.33333 3.6 2.33333V2.33333ZM21.6 14H20.4C20.0817 14 19.7765 13.8771 19.5515 13.6583C19.3264 13.4395 19.2 13.1428 19.2 12.8333C19.2 12.5239 19.3264 12.2272 19.5515 12.0084C19.7765 11.7896 20.0817 11.6667 20.4 11.6667H21.6V14ZM21.6 9.33333H20.4C19.4452 9.33333 18.5295 9.70208 17.8544 10.3585C17.1793 11.0148 16.8 11.9051 16.8 12.8333C16.8 13.7616 17.1793 14.6518 17.8544 15.3082C18.5295 15.9646 19.4452 16.3333 20.4 16.3333H21.6V17.5C21.6 17.8094 21.4736 18.1062 21.2485 18.325C21.0235 18.5438 20.7183 18.6667 20.4 18.6667H3.6C3.28174 18.6667 2.97652 18.5438 2.75147 18.325C2.52643 18.1062 2.4 17.8094 2.4 17.5V6.80167C2.78552 6.93352 3.19132 7.00059 3.6 7H20.4C20.7183 7 21.0235 7.12292 21.2485 7.34171C21.4736 7.5605 21.6 7.85725 21.6 8.16667V9.33333Z" fill="url(#paint0_linear_60_156)"/>
<defs>
<linearGradient id="paint0_linear_60_156" x1="1.5" y1="2.19925e-07" x2="23.25" y2="21.75" gradientUnits="userSpaceOnUse">
<stop stop-color="#EB00FF"/>
<stop offset="1" stop-color="#00F0FF"/>
</linearGradient>
</defs>
</svg>
