<svg width="18" height="18" viewBox="0 0 18 18" fill="none" xmlns="http://www.w3.org/2000/svg">
<path d="M15.8571 8.57143H14.5714V5.14286C14.5714 4.19571 13.8043 3.42857 12.8571 3.42857H9.42857V2.14286C9.42857 0.96 8.46857 0 7.28571 0C6.10286 0 5.14286 0.96 5.14286 2.14286V3.42857H1.71429C0.767143 3.42857 0.00857142 4.19571 0.00857142 5.14286L0.00428581 8.4H1.28571C2.56286 8.4 3.6 9.43714 3.6 10.7143C3.6 11.9914 2.56286 13.0286 1.28571 13.0286H0.00428581L0 16.2857C0 17.2329 0.767143 18 1.71429 18H4.97143V16.7143C4.97143 15.4371 6.00857 14.4 7.28571 14.4C8.56286 14.4 9.6 15.4371 9.6 16.7143V18H12.8571C13.8043 18 14.5714 17.2329 14.5714 16.2857V12.8571H15.8571C17.04 12.8571 18 11.8971 18 10.7143C18 9.53143 17.04 8.57143 15.8571 8.57143Z" fill="url(#paint0_linear_117_9)"/>
<defs>
<linearGradient id="paint0_linear_117_9" x1="9" y1="0" x2="9" y2="18" gradientUnits="userSpaceOnUse">
<stop stop-color="#D3183A"/>
<stop offset="1" stop-color="#D3183A" stop-opacity="0.6"/>
</linearGradient>
</defs>
</svg>
