<svg width="19" height="19" viewBox="0 0 19 19" fill="none" xmlns="http://www.w3.org/2000/svg">
<g id="Hour icon">
<path id="Ellipse 2" d="M19 9.5C19 14.7467 14.7467 19 9.5 19C4.25329 19 0 14.7467 0 9.5C0 4.25329 4.25329 0 9.5 0C14.7467 0 19 4.25329 19 9.5ZM2.04749 9.5C2.04749 13.6159 5.38409 16.9525 9.5 16.9525C13.6159 16.9525 16.9525 13.6159 16.9525 9.5C16.9525 5.38409 13.6159 2.04749 9.5 2.04749C5.38409 2.04749 2.04749 5.38409 2.04749 9.5Z" fill="url(#paint0_linear_60_132)"/>
<path id="Line 1" d="M9.23193 11.2928L8.72882 3.79991" stroke="url(#paint1_linear_60_132)"/>
<path id="Line 2" d="M8.26196 10.6375L13.8931 10.5267" stroke="url(#paint2_linear_60_132)"/>
</g>
<defs>
<linearGradient id="paint0_linear_60_132" x1="9.5" y1="0" x2="9.5" y2="19" gradientUnits="userSpaceOnUse">
<stop stop-color="#ED1EFF"/>
<stop offset="1" stop-color="#1EF1FF"/>
</linearGradient>
<linearGradient id="paint1_linear_60_132" x1="8.16446" y1="7.41912" x2="9.79629" y2="7.67358" gradientUnits="userSpaceOnUse">
<stop stop-color="#1EFFF1"/>
<stop offset="1" stop-color="#FF1EE8"/>
</linearGradient>
<linearGradient id="paint2_linear_60_132" x1="10.9697" y1="10.0687" x2="11.1854" y2="11.0955" gradientUnits="userSpaceOnUse">
<stop stop-color="#1EFFF1"/>
<stop offset="1" stop-color="#FF1EE8"/>
</linearGradient>
</defs>
</svg>
