<svg width="19" height="22" viewBox="0 0 19 22" fill="none" xmlns="http://www.w3.org/2000/svg">
<path d="M9.49616 0C7.94032 0 6.12206 0.463596 4.63496 1.66894C3.14785 2.87429 2.06064 4.86615 2.06064 7.61895C2.06064 10.5316 3.84767 13.3707 5.55034 15.548C7.25301 17.7285 8.95568 19.2536 8.95568 19.2536C9.26809 19.535 9.73359 19.535 10.046 19.2536C10.046 19.2536 11.7487 17.7285 13.4513 15.548C15.154 13.3707 16.941 10.5316 16.941 7.61895C16.941 4.86296 15.8538 2.87429 14.3667 1.66894C12.8796 0.463596 11.052 0 9.49616 0ZM9.49616 1.69452C10.7302 1.69452 12.2204 2.08138 13.3389 2.99259C14.4636 3.9006 15.2884 5.29778 15.2884 7.61895C15.2884 9.78026 13.795 12.4595 12.1642 14.4866C10.7802 16.2067 10.1366 16.8109 9.50241 17.46C8.90881 16.8333 8.14964 16.1427 6.83749 14.4866C5.21917 12.4467 3.71333 9.78026 3.71333 7.61895C3.71333 5.29778 4.53811 3.9006 5.65968 2.99259C6.78438 2.08138 8.26523 1.69452 9.49616 1.69452ZM9.49616 3.40183C7.22489 3.40183 5.36601 5.31057 5.36601 7.63813C5.36601 9.96251 7.22489 11.8648 9.49616 11.8648C11.7705 11.8648 13.6357 9.96251 13.6357 7.63813C13.6316 6.51589 13.1941 5.44082 12.4187 4.64727C11.6433 3.85372 10.5928 3.40604 9.49616 3.40183ZM9.49616 5.09635C10.877 5.09635 11.983 6.22497 11.983 7.63813C11.9838 7.97198 11.92 8.30269 11.7951 8.61113C11.6703 8.91957 11.487 9.19963 11.2557 9.4351C11.0245 9.67058 10.7499 9.8568 10.4479 9.98299C10.1458 10.1092 9.82237 10.1729 9.49616 10.1703C9.17076 10.172 8.84826 10.1077 8.54731 9.98102C8.24636 9.85437 7.97294 9.66792 7.74284 9.43244C7.51275 9.19697 7.33055 8.91715 7.20679 8.60916C7.08303 8.30118 7.02016 7.97114 7.02182 7.63813C7.01975 7.30456 7.08228 6.97387 7.20578 6.66516C7.32928 6.35645 7.51131 6.07583 7.74136 5.83951C7.97141 5.60319 8.24493 5.41584 8.54611 5.28829C8.8473 5.16074 9.1702 5.0955 9.49616 5.09635ZM5.34726 17.1211C5.32945 17.1236 5.31173 17.1268 5.29415 17.1306C3.50088 17.3193 2.14187 17.5942 1.22337 18.0035C0.764115 18.2081 0.348601 18.4063 0.0986675 18.9595C-0.0272518 19.2629 -0.0328539 19.6046 0.0830467 19.9122C0.198641 20.2032 0.392339 20.3982 0.589162 20.5517C1.37645 21.1591 2.50427 21.3989 4.04136 21.6323C5.57845 21.8657 7.47482 22 9.49616 22C11.5206 22 13.4139 21.8657 14.9509 21.6323C16.4912 21.3989 17.6221 21.1591 18.4125 20.5517C18.6352 20.3926 18.8104 20.1735 18.9186 19.9186C19.0333 19.6083 19.0266 19.2648 18.8999 18.9595C18.65 18.4031 18.2376 18.2081 17.7752 18.0003C16.8598 17.5942 15.507 17.3193 13.7138 17.1306C12.6609 17.0411 12.4079 18.6174 13.5419 18.8156C14.9759 18.9658 16.1787 19.2056 16.8723 19.455C16.3912 19.6341 15.6851 19.8099 14.7073 19.957C13.2764 20.1744 11.4488 20.3087 9.49616 20.3087C7.54668 20.3087 5.71904 20.1744 4.28817 19.957C3.5505 19.8621 2.82341 19.6951 2.11688 19.4582C3.20806 19.1331 4.32766 18.9179 5.45973 18.8156C6.53757 18.6493 6.39074 17.1306 5.34726 17.1211Z" fill="white"/>
</svg>
