<svg width="11" height="9" viewBox="0 0 11 9" fill="none" xmlns="http://www.w3.org/2000/svg">
<path d="M3.08923 1.61738C3.0904 1.61738 3.09148 1.61803 3.09204 1.61906C3.57434 2.50677 3.82002 3.43639 3.81976 4.37206V5.91838C3.81976 5.94907 3.79987 5.97847 3.76447 6.00023C3.72908 6.02193 3.68104 6.03412 3.63098 6.03412H2.1888C2.08455 6.03412 2.00002 5.9823 2.00002 5.91838V4.37206C1.99977 3.43579 2.24586 2.50563 2.72864 1.61738C2.7541 1.5699 2.82649 1.53781 2.90798 1.53781C2.98859 1.53781 3.06016 1.56915 3.08639 1.61571C3.08697 1.61674 3.08805 1.61738 3.08923 1.61738ZM5.54519 1.53869C5.46403 1.53859 5.39181 1.57026 5.36585 1.61738C4.88296 2.5056 4.63697 3.4358 4.63723 4.37206V5.91838C4.63723 5.94907 4.65712 5.97847 4.69252 6.00023C4.72791 6.02193 4.77595 6.03412 4.82601 6.03412H6.26448H6.2644C6.31446 6.03412 6.36249 6.02193 6.39789 6.00023C6.43328 5.97847 6.45317 5.94907 6.45317 5.91838V4.37206C6.45646 3.43609 6.21366 2.50602 5.73398 1.61738C5.70701 1.56814 5.62981 1.536 5.5452 1.53869H5.54519ZM8.3617 1.61738C8.3617 1.61738 8.36169 1.61738 8.36169 1.61737C8.33623 1.56989 8.26384 1.53781 8.18236 1.53781C8.10078 1.53781 8.02847 1.5699 8.00302 1.61738C7.52013 2.5056 7.27414 3.4358 7.27431 4.37206V5.91838C7.27431 5.94907 7.2942 5.97847 7.3296 6.00023C7.36508 6.02193 7.41303 6.03412 7.46309 6.03412H8.90156C8.95162 6.03412 8.99966 6.02193 9.03505 6.00023C9.07045 5.97847 9.09034 5.94907 9.09034 5.91838V4.37206C9.09059 3.43579 8.8445 2.50563 8.36172 1.61739C8.36172 1.61739 8.36171 1.61738 8.3617 1.61738ZM3.62724 6.24535C3.62724 6.24631 3.62647 6.24709 3.62552 6.24709H2.18877C2.08453 6.24709 2 6.29891 2 6.36283V6.94154C2.00295 7.01321 2.05132 7.08131 2.13484 7.13148C2.21835 7.1816 2.33052 7.20981 2.4474 7.21007H3.36674H3.36666C3.48548 7.21007 3.59951 7.18119 3.68369 7.12978C3.76788 7.07841 3.8155 7.00861 3.816 6.93575V6.35704C3.81391 6.29441 3.7309 6.24419 3.62897 6.24363C3.62801 6.24362 3.62723 6.2444 3.62724 6.24535ZM6.26721 6.24535C6.26802 6.24584 6.26767 6.24709 6.26672 6.24709H4.82595C4.72162 6.24709 4.63718 6.29891 4.63718 6.36283V6.94154C4.64013 7.01321 4.6885 7.08131 4.77202 7.13148C4.85553 7.1816 4.96762 7.20981 5.0845 7.21007H6.00578C6.12427 7.20976 6.23778 7.18077 6.32156 7.12941C6.40532 7.078 6.45269 7.0084 6.45311 6.93575V6.35703C6.45111 6.29474 6.36898 6.24472 6.2677 6.24363C6.26676 6.24362 6.2664 6.24486 6.26721 6.24535ZM8.90723 6.24536C8.9082 6.24565 8.90799 6.24709 8.90697 6.24709H7.46307C7.35882 6.24709 7.27429 6.29891 7.27429 6.36283V6.94154C7.27724 7.01342 7.32595 7.08168 7.40989 7.13185C7.49383 7.18202 7.60642 7.21008 7.72364 7.21008H8.64298H8.6429C8.76147 7.20977 8.8749 7.18078 8.95876 7.12942C9.04253 7.07801 9.08981 7.00841 9.09031 6.93575V6.35704C9.08833 6.29528 9.00758 6.24558 8.9075 6.24368C8.90648 6.24366 8.90625 6.24506 8.90723 6.24536Z" fill="white"/>
</svg>
