<svg width="14" height="14" viewBox="0 0 14 14" fill="none" xmlns="http://www.w3.org/2000/svg">
<g clip-path="url(#clip0_1_86)">
<path d="M1.36119 5.27334L1.94452 4.93112V6.22223H12.0556V4.94278L12.6312 5.27334C12.7201 5.31983 12.8235 5.33018 12.9198 5.30224C13.0161 5.27429 13.0979 5.21021 13.1481 5.12337C13.1983 5.03653 13.213 4.93365 13.1892 4.83623C13.1653 4.7388 13.1047 4.65437 13.0201 4.60056L7.00008 1.13556L0.972301 4.60056C0.925827 4.62487 0.884751 4.65833 0.851544 4.69893C0.818337 4.73953 0.793685 4.78642 0.779071 4.83679C0.764458 4.88717 0.760185 4.93997 0.76651 4.99204C0.772834 5.04411 0.789625 5.09436 0.815873 5.13977C0.842121 5.18517 0.877283 5.2248 0.919243 5.25627C0.961204 5.28774 1.0091 5.31039 1.06004 5.32287C1.11098 5.33535 1.16392 5.33739 1.21568 5.32888C1.26743 5.32037 1.31693 5.30148 1.36119 5.27334ZM6.94175 2.765C6.98904 2.7377 7.04269 2.72332 7.0973 2.72332C7.15191 2.72332 7.20556 2.7377 7.25286 2.765L9.86619 4.27778H8.61397L7.0973 3.40667L5.58063 4.27778H4.3323L6.94175 2.765Z" fill="white"/>
<path d="M12.7751 10.5H12.4445V10.1694C12.4445 10.0508 12.3974 9.93708 12.3135 9.85321C12.2296 9.76934 12.1159 9.72222 11.9973 9.72222H10.8889V6.85611H9.33339V9.72222H7.77783V6.85611H6.22228V9.72222H4.66672V6.85611H3.11117V9.72222H2.00283C1.88422 9.72222 1.77047 9.76934 1.6866 9.85321C1.60273 9.93708 1.55561 10.0508 1.55561 10.1694V10.5H1.22505C1.10644 10.5 0.992691 10.5471 0.90882 10.631C0.82495 10.7149 0.777832 10.8286 0.777832 10.9472V12.0556H13.2223V10.9472C13.2223 10.8286 13.1752 10.7149 13.0913 10.631C13.0074 10.5471 12.8937 10.5 12.7751 10.5Z" fill="white"/>
</g>
<defs>
<clipPath id="clip0_1_86">
<rect width="14" height="14" fill="white"/>
</clipPath>
</defs>
</svg>
