<svg width="37" height="43" viewBox="0 0 37 43" fill="none" xmlns="http://www.w3.org/2000/svg">
<path d="M18.4097 0L36.8194 9.99178V32.1957L18.4097 42.1875L0 32.1957V9.99178L18.4097 0Z" fill="black" fill-opacity="0.3"/>
<path d="M18 13C14.6871 13 12 15.6648 12 18.95C12 23.4125 18 30 18 30C18 30 24 23.4125 24 18.95C24 15.6648 21.3129 13 18 13ZM18 21.075C16.8171 21.075 15.8571 20.123 15.8571 18.95C15.8571 17.777 16.8171 16.825 18 16.825C19.1829 16.825 20.1429 17.777 20.1429 18.95C20.1429 20.123 19.1829 21.075 18 21.075Z" fill="white"/>
</svg>
