<svg width="239" height="49" viewBox="0 0 239 49" fill="none" xmlns="http://www.w3.org/2000/svg">
<path d="M215.037 23.6134L214.5 23.8938V24.5V39.0162L203.152 48H1V1H226V17.8938L215.037 23.6134Z" fill="url(#paint0_linear_6_42)" fill-opacity="0.25" stroke="url(#paint1_linear_6_42)" stroke-width="2"/>
<path fill-rule="evenodd" clip-rule="evenodd" d="M238.99 23.5L226 16L213.01 23.5V38.5L226 46L238.99 38.5V23.5ZM226 39C229.866 39 233 35.9295 233 32.1429C229.134 32.1429 226 35.2133 226 39ZM219 32.1429C219 35.9295 222.134 39 226 39C226 35.2133 222.866 32.1429 219 32.1429ZM222.971 31.9524C221.897 31.9524 221.026 31.099 221.026 30.0476C221.026 29.2895 221.481 28.6381 222.138 28.3333C221.481 28.0286 221.026 27.3771 221.026 26.619C221.026 25.5676 221.897 24.7143 222.971 24.7143C223.379 24.7143 223.756 24.8362 224.071 25.0495L224.056 24.9048C224.056 23.8533 224.927 23 226 23C227.073 23 227.944 23.8533 227.944 24.9048L227.929 25.0495C228.24 24.84 228.621 24.7143 229.029 24.7143C230.103 24.7143 230.974 25.5676 230.974 26.619C230.974 27.3771 230.515 28.0286 229.862 28.3333C230.519 28.6381 230.974 29.2895 230.974 30.0476C230.974 31.099 230.103 31.9524 229.029 31.9524C228.621 31.9524 228.244 31.8305 227.929 31.6171L227.944 31.7619C227.944 32.8133 227.073 33.6667 226 33.6667C224.927 33.6667 224.056 32.8133 224.056 31.7619L224.071 31.6171C223.76 31.8267 223.379 31.9524 222.971 31.9524ZM226 26.4286C227.073 26.4286 227.944 27.2819 227.944 28.3333C227.944 29.3848 227.073 30.2381 226 30.2381C224.927 30.2381 224.056 29.3848 224.056 28.3333C224.056 27.2819 224.927 26.4286 226 26.4286Z" fill="#98EB44"/>
<path d="M150.473 22.156C149.754 22.156 149.091 22.0433 148.484 21.818C147.886 21.584 147.362 21.2547 146.911 20.83C146.469 20.4053 146.122 19.907 145.871 19.335C145.628 18.763 145.507 18.1347 145.507 17.45C145.507 16.7653 145.628 16.137 145.871 15.565C146.122 14.993 146.473 14.4947 146.924 14.07C147.375 13.6453 147.903 13.3203 148.51 13.095C149.117 12.861 149.784 12.744 150.512 12.744C151.318 12.744 152.042 12.8783 152.683 13.147C153.333 13.4157 153.879 13.8057 154.321 14.317L152.969 15.565C152.64 15.2183 152.28 14.9627 151.89 14.798C151.5 14.6247 151.075 14.538 150.616 14.538C150.174 14.538 149.771 14.6073 149.407 14.746C149.043 14.8847 148.727 15.084 148.458 15.344C148.198 15.604 147.994 15.9117 147.847 16.267C147.708 16.6223 147.639 17.0167 147.639 17.45C147.639 17.8747 147.708 18.2647 147.847 18.62C147.994 18.9753 148.198 19.2873 148.458 19.556C148.727 19.816 149.039 20.0153 149.394 20.154C149.758 20.2927 150.157 20.362 150.59 20.362C151.006 20.362 151.409 20.297 151.799 20.167C152.198 20.0283 152.583 19.7987 152.956 19.478L154.152 20.999C153.658 21.3717 153.082 21.6577 152.423 21.857C151.773 22.0563 151.123 22.156 150.473 22.156ZM152.228 20.726V17.307H154.152V20.999L152.228 20.726ZM156.108 22V12.9H160.047C160.862 12.9 161.564 13.0343 162.153 13.303C162.743 13.563 163.198 13.94 163.518 14.434C163.839 14.928 163.999 15.5173 163.999 16.202C163.999 16.878 163.839 17.463 163.518 17.957C163.198 18.4423 162.743 18.815 162.153 19.075C161.564 19.335 160.862 19.465 160.047 19.465H157.278L158.214 18.542V22H156.108ZM161.893 22L159.618 18.698H161.867L164.168 22H161.893ZM158.214 18.776L157.278 17.788H159.93C160.58 17.788 161.066 17.6493 161.386 17.372C161.707 17.086 161.867 16.696 161.867 16.202C161.867 15.6993 161.707 15.3093 161.386 15.032C161.066 14.7547 160.58 14.616 159.93 14.616H157.278L158.214 13.615V18.776ZM167.605 16.566H171.986V18.204H167.605V16.566ZM167.761 20.31H172.714V22H165.668V12.9H172.545V14.59H167.761V20.31ZM176.327 16.566H180.708V18.204H176.327V16.566ZM176.483 20.31H181.436V22H174.39V12.9H181.267V14.59H176.483V20.31ZM183.111 22V12.9H184.853L190.222 19.452H189.377V12.9H191.457V22H189.728L184.346 15.448H185.191V22H183.111Z" fill="#98EB44"/>
<path d="M153.494 37V35.635L159.123 28.849L159.383 29.616H153.598V27.9H161.255V29.265L155.639 36.051L155.379 35.284H161.45V37H153.494ZM167.132 37.156C166.412 37.156 165.745 37.039 165.13 36.805C164.523 36.571 163.994 36.2417 163.544 35.817C163.102 35.3923 162.755 34.894 162.504 34.322C162.261 33.75 162.14 33.126 162.14 32.45C162.14 31.774 162.261 31.15 162.504 30.578C162.755 30.006 163.106 29.5077 163.557 29.083C164.007 28.6583 164.536 28.329 165.143 28.095C165.749 27.861 166.408 27.744 167.119 27.744C167.838 27.744 168.497 27.861 169.095 28.095C169.701 28.329 170.226 28.6583 170.668 29.083C171.118 29.5077 171.469 30.006 171.721 30.578C171.972 31.1413 172.098 31.7653 172.098 32.45C172.098 33.126 171.972 33.7543 171.721 34.335C171.469 34.907 171.118 35.4053 170.668 35.83C170.226 36.246 169.701 36.571 169.095 36.805C168.497 37.039 167.842 37.156 167.132 37.156ZM167.119 35.362C167.526 35.362 167.899 35.2927 168.237 35.154C168.583 35.0153 168.887 34.816 169.147 34.556C169.407 34.296 169.606 33.9883 169.745 33.633C169.892 33.2777 169.966 32.8833 169.966 32.45C169.966 32.0167 169.892 31.6223 169.745 31.267C169.606 30.9117 169.407 30.604 169.147 30.344C168.895 30.084 168.596 29.8847 168.25 29.746C167.903 29.6073 167.526 29.538 167.119 29.538C166.711 29.538 166.334 29.6073 165.988 29.746C165.65 29.8847 165.351 30.084 165.091 30.344C164.831 30.604 164.627 30.9117 164.48 31.267C164.341 31.6223 164.272 32.0167 164.272 32.45C164.272 32.8747 164.341 33.269 164.48 33.633C164.627 33.9883 164.826 34.296 165.078 34.556C165.338 34.816 165.641 35.0153 165.988 35.154C166.334 35.2927 166.711 35.362 167.119 35.362ZM173.681 37V27.9H175.423L180.792 34.452H179.947V27.9H182.027V37H180.298L174.916 30.448H175.761V37H173.681ZM186.117 31.566H190.498V33.204H186.117V31.566ZM186.273 35.31H191.226V37H184.18V27.9H191.057V29.59H186.273V35.31Z" fill="#98EB44"/>
<defs>
<linearGradient id="paint0_linear_6_42" x1="225.5" y1="21.6417" x2="25.51" y2="19.1928" gradientUnits="userSpaceOnUse">
<stop stop-color="#8EDD3F"/>
<stop offset="1" stop-color="#8EDD3F" stop-opacity="0"/>
</linearGradient>
<linearGradient id="paint1_linear_6_42" x1="212.5" y1="-2.14913" x2="121.983" y2="61.1341" gradientUnits="userSpaceOnUse">
<stop offset="0.015625" stop-color="#A3FF46"/>
<stop offset="1" stop-color="#8EDD3F" stop-opacity="0"/>
</linearGradient>
</defs>
</svg>
