<svg width="19" height="19" viewBox="0 0 19 19" fill="none" xmlns="http://www.w3.org/2000/svg">
<path d="M16.2572 10.1427H14.7878C14.9376 10.5528 15.0194 10.9953 15.0194 11.4566V17.01C15.0194 17.2023 14.986 17.3869 14.9251 17.5585H17.3543C18.2617 17.5585 18.9999 16.8203 18.9999 15.9129V12.8855C19 11.3731 17.7696 10.1427 16.2572 10.1427Z" fill="white" fill-opacity="0.74"/>
<path d="M3.98055 11.4566C3.98055 10.9953 4.06237 10.5528 4.21214 10.1428H2.74276C1.2304 10.1428 0 11.3732 0 12.8855V15.9129C0 16.8203 0.738218 17.5586 1.64566 17.5586H4.07491C4.01402 17.3869 3.98055 17.2023 3.98055 17.01V11.4566Z" fill="white" fill-opacity="0.74"/>
<path d="M11.1796 8.7139H7.82039C6.30804 8.7139 5.07764 9.9443 5.07764 11.4567V17.0101C5.07764 17.313 5.32323 17.5586 5.62619 17.5586H13.3738C13.6768 17.5586 13.9224 17.313 13.9224 17.0101V11.4567C13.9224 9.9443 12.692 8.7139 11.1796 8.7139Z" fill="white" fill-opacity="0.74"/>
<path d="M9.50016 1.44138C7.68136 1.44138 6.20166 2.92108 6.20166 4.73992C6.20166 5.97363 6.88258 7.0511 7.88817 7.6168C8.36514 7.8851 8.91502 8.03843 9.50016 8.03843C10.0853 8.03843 10.6352 7.8851 11.1122 7.6168C12.1178 7.0511 12.7987 5.97359 12.7987 4.73992C12.7987 2.92111 11.319 1.44138 9.50016 1.44138Z" fill="white" fill-opacity="0.74"/>
<path d="M3.70806 4.51584C2.34781 4.51584 1.24121 5.62244 1.24121 6.98269C1.24121 8.34294 2.34781 9.44954 3.70806 9.44954C4.0531 9.44954 4.38167 9.37807 4.68014 9.24959C5.19619 9.02742 5.62168 8.63413 5.88498 8.14151C6.06978 7.79576 6.17491 7.40132 6.17491 6.98269C6.17491 5.62248 5.06831 4.51584 3.70806 4.51584Z" fill="white" fill-opacity="0.74"/>
<path d="M15.2923 4.51584C13.932 4.51584 12.8254 5.62244 12.8254 6.98269C12.8254 7.40136 12.9306 7.79579 13.1154 8.14151C13.3787 8.63417 13.8042 9.02746 14.3202 9.24959C14.6187 9.37807 14.9472 9.44954 15.2923 9.44954C16.6525 9.44954 17.7591 8.34294 17.7591 6.98269C17.7591 5.62244 16.6525 4.51584 15.2923 4.51584Z" fill="white" fill-opacity="0.74"/>
</svg>
