<svg width="42" height="36" viewBox="0 0 42 36" fill="none" xmlns="http://www.w3.org/2000/svg">
<path d="M18 24C21.309 24 24 21.3075 24 18V9C24 5.691 21.309 3 18 3C14.691 3 12 5.691 12 9V18C12 21.3075 14.691 24 18 24ZM28.5 18V15C28.5 14.6022 28.342 14.2206 28.0607 13.9393C27.7794 13.658 27.3978 13.5 27 13.5C26.6022 13.5 26.2206 13.658 25.9393 13.9393C25.658 14.2206 25.5 14.6022 25.5 15V18C25.5 22.1355 22.1355 25.5 18 25.5C13.8645 25.5 10.5 22.1355 10.5 18V15C10.5 14.6022 10.342 14.2206 10.0607 13.9393C9.77936 13.658 9.39782 13.5 9 13.5C8.60218 13.5 8.22064 13.658 7.93934 13.9393C7.65804 14.2206 7.5 14.6022 7.5 15V18C7.5 23.28 11.4195 27.648 16.5 28.38V30H12C11.6022 30 11.2206 30.158 10.9393 30.4393C10.658 30.7206 10.5 31.1022 10.5 31.5C10.5 31.8978 10.658 32.2794 10.9393 32.5607C11.2206 32.842 11.6022 33 12 33H24C24.3978 33 24.7794 32.842 25.0607 32.5607C25.342 32.2794 25.5 31.8978 25.5 31.5C25.5 31.1022 25.342 30.7206 25.0607 30.4393C24.7794 30.158 24.3978 30 24 30H19.5V28.38C24.5805 27.648 28.5 23.28 28.5 18Z" fill="#A3FF5A"/>
<path d="M39.264 23.2H40.958V33H39.25L37.36 28.744C37.066 27.974 36.716 27.078 36.45 26.35L36.408 26.392C36.534 27.498 36.618 29.164 36.618 30.186V33H34.924V23.2H36.632L38.676 27.806C38.928 28.436 39.222 29.206 39.46 29.808L39.502 29.766C39.362 28.66 39.264 27.078 39.264 26.182V23.2Z" fill="white"/>
</svg>
