<svg width="128" height="44" viewBox="0 0 128 44" fill="none" xmlns="http://www.w3.org/2000/svg">
<rect x="0.5" y="0.5" width="127" height="43" rx="4.5" fill="#9BF384" fill-opacity="0.57" stroke="#75DF59"/>
<path d="M27.473 27.13C26.7623 27.13 26.108 27.0173 25.51 26.792C24.9207 26.558 24.405 26.233 23.963 25.817C23.521 25.3923 23.1787 24.894 22.936 24.322C22.6933 23.75 22.572 23.126 22.572 22.45C22.572 21.774 22.6933 21.15 22.936 20.578C23.1787 20.006 23.521 19.512 23.963 19.096C24.4137 18.6713 24.938 18.3463 25.536 18.121C26.134 17.887 26.7883 17.77 27.499 17.77C28.2703 17.77 28.9637 17.8957 29.579 18.147C30.203 18.3983 30.7273 18.7667 31.152 19.252L30.086 20.292C29.7307 19.9367 29.345 19.6767 28.929 19.512C28.5217 19.3387 28.071 19.252 27.577 19.252C27.1003 19.252 26.6583 19.33 26.251 19.486C25.8437 19.642 25.4927 19.863 25.198 20.149C24.9033 20.435 24.6737 20.773 24.509 21.163C24.353 21.553 24.275 21.982 24.275 22.45C24.275 22.9093 24.353 23.334 24.509 23.724C24.6737 24.114 24.9033 24.4563 25.198 24.751C25.4927 25.037 25.8393 25.258 26.238 25.414C26.6367 25.57 27.0787 25.648 27.564 25.648C28.0147 25.648 28.448 25.5787 28.864 25.44C29.2887 25.2927 29.6917 25.05 30.073 24.712L31.035 25.973C30.5583 26.3543 30.0037 26.6447 29.371 26.844C28.747 27.0347 28.1143 27.13 27.473 27.13ZM29.436 25.752V22.346H31.035V25.973L29.436 25.752ZM32.549 27V17.9H36.293C37.099 17.9 37.788 18.03 38.36 18.29C38.9407 18.55 39.387 18.9227 39.699 19.408C40.011 19.8933 40.167 20.4697 40.167 21.137C40.167 21.8043 40.011 22.3807 39.699 22.866C39.387 23.3427 38.9407 23.711 38.36 23.971C37.788 24.2223 37.099 24.348 36.293 24.348H33.485L34.239 23.581V27H32.549ZM38.503 27L36.202 23.698H38.009L40.323 27H38.503ZM34.239 23.763L33.485 22.957H36.215C36.9603 22.957 37.5193 22.7967 37.892 22.476C38.2733 22.1553 38.464 21.709 38.464 21.137C38.464 20.5563 38.2733 20.11 37.892 19.798C37.5193 19.486 36.9603 19.33 36.215 19.33H33.485L34.239 18.498V23.763ZM42.9028 21.683H47.4268V23.074H42.9028V21.683ZM43.0328 25.583H48.1678V27H41.3428V17.9H47.9858V19.317H43.0328V25.583ZM50.8968 21.683H55.4208V23.074H50.8968V21.683ZM51.0268 25.583H56.1618V27H49.3368V17.9H55.9798V19.317H51.0268V25.583ZM57.3307 27V17.9H58.7217L64.4287 24.907H63.7397V17.9H65.4167V27H64.0257L58.3187 19.993H59.0077V27H57.3307ZM69.3289 27V25.869L75.2049 18.693L75.3999 19.33H69.4199V17.9H76.9209V19.031L71.0449 26.207L70.8369 25.57H77.0899V27H69.3289ZM82.0855 27.13C81.3748 27.13 80.7205 27.013 80.1225 26.779C79.5245 26.545 79.0045 26.22 78.5625 25.804C78.1205 25.3793 77.7782 24.8853 77.5355 24.322C77.2928 23.75 77.1715 23.126 77.1715 22.45C77.1715 21.774 77.2928 21.1543 77.5355 20.591C77.7782 20.019 78.1205 19.525 78.5625 19.109C79.0045 18.6843 79.5245 18.355 80.1225 18.121C80.7205 17.887 81.3705 17.77 82.0725 17.77C82.7832 17.77 83.4332 17.887 84.0225 18.121C84.6205 18.355 85.1405 18.6843 85.5825 19.109C86.0245 19.525 86.3668 20.019 86.6095 20.591C86.8522 21.1543 86.9735 21.774 86.9735 22.45C86.9735 23.126 86.8522 23.75 86.6095 24.322C86.3668 24.894 86.0245 25.388 85.5825 25.804C85.1405 26.22 84.6205 26.545 84.0225 26.779C83.4332 27.013 82.7875 27.13 82.0855 27.13ZM82.0725 25.648C82.5318 25.648 82.9565 25.57 83.3465 25.414C83.7365 25.258 84.0745 25.037 84.3605 24.751C84.6465 24.4563 84.8675 24.1183 85.0235 23.737C85.1882 23.347 85.2705 22.918 85.2705 22.45C85.2705 21.982 85.1882 21.5573 85.0235 21.176C84.8675 20.786 84.6465 20.448 84.3605 20.162C84.0745 19.8673 83.7365 19.642 83.3465 19.486C82.9565 19.33 82.5318 19.252 82.0725 19.252C81.6132 19.252 81.1885 19.33 80.7985 19.486C80.4172 19.642 80.0792 19.8673 79.7845 20.162C79.4985 20.448 79.2732 20.786 79.1085 21.176C78.9525 21.5573 78.8745 21.982 78.8745 22.45C78.8745 22.9093 78.9525 23.334 79.1085 23.724C79.2732 24.114 79.4985 24.4563 79.7845 24.751C80.0705 25.037 80.4085 25.258 80.7985 25.414C81.1885 25.57 81.6132 25.648 82.0725 25.648ZM88.0499 27V17.9H89.4409L95.1479 24.907H94.4589V17.9H96.1359V27H94.7449L89.0379 19.993H89.7269V27H88.0499ZM99.4193 21.683H103.943V23.074H99.4193V21.683ZM99.5493 25.583H104.684V27H97.8593V17.9H104.502V19.317H99.5493V25.583Z" fill="white"/>
</svg>
