<svg width="22" height="25" viewBox="0 0 22 25" fill="none" xmlns="http://www.w3.org/2000/svg">
<path d="M11 0L22 5.92105V19.0789L11 25L0 19.0789V5.92105L11 0Z" fill="black" fill-opacity="0.3"/>
<path d="M10.1915 8.11089C10.2043 8.00701 10.1787 7.90312 10.1145 7.81222C10.0503 7.72132 9.9605 7.6564 9.85783 7.64341C9.75517 7.63043 9.6525 7.64341 9.56267 7.70834C9.47283 7.77327 9.40867 7.85118 9.39583 7.95506L9.01083 10.0587H7.36817C7.2655 10.0587 7.17567 10.0977 7.09867 10.1756C7.02167 10.2535 6.98317 10.3444 6.98317 10.4613C6.98317 10.5781 7.02167 10.669 7.09867 10.7599C7.17567 10.8508 7.2655 10.8898 7.36817 10.8898H8.85683L8.29217 14.1102H6.5725C6.46983 14.1102 6.38 14.1492 6.303 14.2401C6.226 14.331 6.1875 14.4219 6.1875 14.5387C6.1875 14.6556 6.226 14.7465 6.303 14.8244C6.38 14.9023 6.46983 14.9413 6.5725 14.9413H8.13817L7.77883 16.8891C7.766 16.993 7.77883 17.0969 7.843 17.1878C7.90717 17.2787 7.98417 17.3436 8.09967 17.3566C8.21517 17.3696 8.31783 17.3566 8.40767 17.2917C8.4975 17.2267 8.56167 17.1488 8.5745 17.0449L8.9595 14.9413H12.1422L11.7828 16.8891C11.77 16.993 11.7957 17.0969 11.8598 17.1878C11.924 17.2787 12.0138 17.3436 12.1165 17.3566C12.2192 17.3696 12.3218 17.3566 12.4117 17.2917C12.5015 17.2267 12.5657 17.1488 12.5785 17.0449L12.9635 14.9413H14.6062C14.7088 14.9413 14.7987 14.9023 14.8757 14.8244C14.9527 14.7465 14.9912 14.6556 14.9912 14.5387C14.9912 14.4219 14.9527 14.331 14.8757 14.2401C14.7987 14.1492 14.7088 14.1102 14.6062 14.1102H13.1175L13.6822 10.8898H15.4018C15.5045 10.8898 15.5943 10.8508 15.6842 10.7599C15.774 10.669 15.8125 10.5781 15.8125 10.4613C15.8125 10.3444 15.774 10.2535 15.6842 10.1756C15.5943 10.0977 15.5045 10.0587 15.4018 10.0587H13.8362L14.1955 8.11089C14.2083 8.00701 14.1955 7.90312 14.1313 7.81222C14.0672 7.72132 13.9902 7.6564 13.8747 7.64341C13.7592 7.63043 13.6565 7.64341 13.5667 7.70834C13.4768 7.77327 13.4127 7.85118 13.3998 7.95506L13.0148 10.0587H9.83217L10.1915 8.11089ZM9.67817 10.8638H12.8865L12.2962 14.1102H9.08783L9.67817 10.8638Z" fill="white" stroke="white" stroke-width="0.4"/>
</svg>
