<svg width="22" height="25" viewBox="0 0 22 25" fill="none" xmlns="http://www.w3.org/2000/svg">
<path d="M11 0L22 5.92105V19.0789L11 25L0 19.0789V5.92105L11 0Z" fill="black" fill-opacity="0.3"/>
<path d="M10.6673 12.202C10.9506 11.9529 11.1779 11.6449 11.3336 11.2988C11.4894 10.9527 11.5701 10.5766 11.57 10.1961C11.57 9.48104 11.2903 8.79528 10.7924 8.28966C10.2944 7.78405 9.61907 7.5 8.91489 7.5C8.21071 7.5 7.53536 7.78405 7.03743 8.28966C6.5395 8.79528 6.25976 9.48104 6.25976 10.1961C6.25976 10.5766 6.34037 10.9527 6.49614 11.2988C6.6519 11.6449 6.87916 11.9529 7.16251 12.202C6.41915 12.5438 5.78846 13.0957 5.34586 13.7918C4.90326 14.488 4.66747 15.2988 4.66669 16.1275C4.66669 16.2705 4.72263 16.4076 4.82222 16.5087C4.92181 16.6099 5.05687 16.6667 5.19771 16.6667C5.33855 16.6667 5.47362 16.6099 5.5732 16.5087C5.67279 16.4076 5.72874 16.2705 5.72874 16.1275C5.72874 15.2694 6.06442 14.4465 6.66194 13.8397C7.25946 13.233 8.06987 12.8922 8.91489 12.8922C9.75991 12.8922 10.5703 13.233 11.1678 13.8397C11.7654 14.4465 12.1011 15.2694 12.1011 16.1275C12.1011 16.2705 12.157 16.4076 12.2566 16.5087C12.3561 16.6099 12.4912 16.6667 12.6321 16.6667C12.7729 16.6667 12.908 16.6099 13.0076 16.5087C13.1071 16.4076 13.1631 16.2705 13.1631 16.1275C13.1623 15.2988 12.9265 14.488 12.4839 13.7918C12.0413 13.0957 11.4106 12.5438 10.6673 12.202ZM8.91489 11.8137C8.59981 11.8137 8.29181 11.7189 8.02982 11.5411C7.76784 11.3634 7.56366 11.1107 7.44308 10.8151C7.3225 10.5195 7.29095 10.1943 7.35243 9.88049C7.41389 9.5667 7.56562 9.27846 7.78841 9.05223C8.01121 8.826 8.29507 8.67194 8.60409 8.60951C8.91312 8.5471 9.23343 8.57913 9.52453 8.70157C9.81563 8.82401 10.0644 9.03134 10.2395 9.29736C10.4145 9.56338 10.508 9.87614 10.508 10.1961C10.508 10.6251 10.3401 11.0366 10.0414 11.3399C9.74261 11.6433 9.3374 11.8137 8.91489 11.8137ZM14.087 11.9863C14.4269 11.5977 14.6489 11.1176 14.7263 10.6039C14.8037 10.0902 14.7333 9.5647 14.5235 9.09069C14.3136 8.61668 13.9733 8.21435 13.5436 7.93214C13.1138 7.64993 12.6129 7.49986 12.1011 7.5C11.9602 7.5 11.8251 7.55681 11.7255 7.65793C11.6259 7.75906 11.57 7.89621 11.57 8.03921C11.57 8.18223 11.6259 8.31938 11.7255 8.4205C11.8251 8.52162 11.9602 8.57843 12.1011 8.57843C12.5235 8.57843 12.9288 8.74886 13.2275 9.05223C13.5263 9.3556 13.6941 9.76705 13.6941 10.1961C13.6934 10.4793 13.6194 10.7573 13.4796 11.0024C13.3398 11.2475 13.1391 11.451 12.8976 11.5927C12.8188 11.6388 12.7531 11.7046 12.7066 11.7839C12.6601 11.8632 12.6345 11.9533 12.6321 12.0456C12.6298 12.1371 12.6506 12.2277 12.6924 12.3088C12.7342 12.39 12.7957 12.459 12.871 12.5093L13.0781 12.6495L13.1471 12.6873C13.7872 12.9955 14.3273 13.4831 14.7036 14.0926C15.0799 14.7021 15.2769 15.4081 15.2713 16.1275C15.2713 16.2705 15.3272 16.4076 15.4268 16.5087C15.5264 16.6099 15.6615 16.6667 15.8023 16.6667C15.9431 16.6667 16.0782 16.6099 16.1778 16.5087C16.2773 16.4076 16.3333 16.2705 16.3333 16.1275C16.3377 15.3 16.1336 14.4852 15.7404 13.7603C15.3472 13.0355 14.7781 12.4248 14.087 11.9863Z" fill="white"/>
</svg>
