<svg width="37" height="43" viewBox="0 0 37 43" fill="none" xmlns="http://www.w3.org/2000/svg">
<path d="M1 10.5868L18.4097 1.13779L35.8194 10.5868V31.6007L18.4097 41.0497L1 31.6007V10.5868Z" fill="#5B7D30" fill-opacity="0.3" stroke="#BBFF65" stroke-width="2"/>
<path d="M18.5 23.3684C20.0368 23.3684 21.2764 22.0942 21.2764 20.5263L21.2857 14.8421C21.2857 13.2695 20.0414 12 18.5 12C16.9632 12 15.7143 13.2695 15.7143 14.8421V20.5263C15.7143 22.0942 16.9632 23.3684 18.5 23.3684ZM23.4214 20.5263C23.4214 23.3684 21.0675 25.3579 18.5 25.3579C15.9371 25.3579 13.5786 23.3684 13.5786 20.5263H12C12 23.7616 14.5257 26.4332 17.5714 26.8926V30H19.4286V26.8926C22.4743 26.4332 25 23.7616 25 20.5263H23.4214Z" fill="#BBFF65"/>
</svg>
