<svg width="188" height="153" viewBox="0 0 188 153" fill="none" xmlns="http://www.w3.org/2000/svg">
<path d="M47.3112 110.311V3.8609H188V83.543L179.285 90.3907V152.642L47.3112 110.311Z" fill="url(#paint0_linear_193_12)" fill-opacity="0.77"/>
<path d="M188 0.125879V15.0663L180.835 10.5841L175.625 15.0662L169.763 10.5841L163.9 15.0662L157.387 10.5841L150.874 15.0662L144.36 10.5841L139.15 13.917L133.288 10.5841L127.426 15.0663L121.564 10.5841L115.702 15.0662L109.84 10.5841L103.978 15.0662L99.4182 10.5841L93.5561 15.0662L88.3454 10.5841L82.4834 15.0662L77.2727 10.5841L70.7593 15.0663L64.8973 10.5841L58.3839 15.0663L53.1732 10.5841L47.3112 15.0662V13.917V0.125854L188 0.125879Z" fill="#BA0828"/>
<path d="M9.17164 44.8116L46.0662 23.5105L82.9607 44.8116V87.4137L46.0662 108.715L9.17164 87.4137V44.8116Z" fill="#BA0828" stroke="#9A0C26" stroke-width="6"/>
<path d="M102.093 64.8676H188V82.298L178.846 89.7682H102.093V64.8676Z" fill="#BA0828"/>
<path d="M114.768 39.9669H188V64.8676H102.093V47.4371L114.768 39.9669Z" fill="white"/>
<defs>
<linearGradient id="paint0_linear_193_12" x1="64.7772" y1="-151.482" x2="61.9987" y2="137.085" gradientUnits="userSpaceOnUse">
<stop stop-color="#74201C"/>
<stop offset="1" stop-color="#FF392E" stop-opacity="0"/>
</linearGradient>
</defs>
</svg>
