<svg width="22" height="25" viewBox="0 0 22 25" fill="none" xmlns="http://www.w3.org/2000/svg">
<path d="M11 0L22 5.92105V19.0789L11 25L0 19.0789V5.92105L11 0Z" fill="black" fill-opacity="0.3"/>
<path d="M11 9.58333C10.9368 9.58331 10.8742 9.59588 10.8158 9.6203C10.7574 9.64472 10.7044 9.68053 10.6597 9.72567C10.615 9.77081 10.5795 9.82441 10.5554 9.88339C10.5312 9.94238 10.5187 10.0056 10.5188 10.0694V12.0139H9.55625C9.42862 12.0139 9.30621 12.0651 9.21596 12.1563C9.1257 12.2474 9.075 12.3711 9.075 12.5C9.075 12.6289 9.1257 12.7526 9.21596 12.8437C9.30621 12.9349 9.42862 12.9861 9.55625 12.9861H11C11.0632 12.9861 11.1258 12.9736 11.1842 12.9491C11.2426 12.9247 11.2956 12.8889 11.3403 12.8438C11.385 12.7986 11.4205 12.745 11.4447 12.686C11.4688 12.6271 11.4813 12.5638 11.4813 12.5V10.0694C11.4813 10.0056 11.4688 9.94238 11.4447 9.88339C11.4205 9.82441 11.385 9.77081 11.3403 9.72567C11.2956 9.68053 11.2426 9.64472 11.1842 9.6203C11.1258 9.59588 11.0632 9.58331 11 9.58333ZM11 7.63889C10.0482 7.63889 9.11773 7.92398 8.32632 8.45813C7.53491 8.99228 6.91808 9.75148 6.55383 10.6397C6.18959 11.528 6.09428 12.5054 6.27997 13.4484C6.46566 14.3913 6.92401 15.2575 7.59705 15.9373C8.27009 16.6172 9.1276 17.0801 10.0611 17.2677C10.9947 17.4553 11.9623 17.359 12.8417 16.9911C13.721 16.6231 14.4726 16.0001 15.0014 15.2007C15.5303 14.4013 15.8125 13.4614 15.8125 12.5C15.811 11.2112 15.3035 9.97562 14.4013 9.0643C13.4991 8.15298 12.2759 7.64036 11 7.63889ZM11 16.3889C10.2385 16.3889 9.49419 16.1608 8.86106 15.7335C8.22793 15.3062 7.73446 14.6988 7.44307 13.9882C7.15167 13.2776 7.07543 12.4957 7.22398 11.7413C7.37253 10.9869 7.73921 10.294 8.27764 9.75014C8.81607 9.20627 9.50208 8.83589 10.2489 8.68583C10.9957 8.53578 11.7698 8.61279 12.4733 8.90713C13.1768 9.20147 13.7781 9.69992 14.2012 10.3394C14.6242 10.979 14.85 11.7308 14.85 12.5C14.8488 13.531 14.4428 14.5195 13.7211 15.2486C12.9993 15.9776 12.0207 16.3877 11 16.3889Z" fill="white"/>
</svg>
