<svg width="42" height="42" viewBox="0 0 42 42" fill="none" xmlns="http://www.w3.org/2000/svg">
<g filter="url(#filter0_d_0_76)">
<path d="M21 17C18.79 17 17 18.79 17 21C17 23.21 18.79 25 21 25C23.21 25 25 23.21 25 21C25 18.79 23.21 17 21 17ZM29.94 20C29.7135 17.9721 28.8042 16.0815 27.3613 14.6387C25.9185 13.1958 24.0279 12.2865 22 12.06V10H20V12.06C17.9721 12.2865 16.0815 13.1958 14.6387 14.6387C13.1958 16.0815 12.2865 17.9721 12.06 20H10V22H12.06C12.2865 24.0279 13.1958 25.9185 14.6387 27.3613C16.0815 28.8042 17.9721 29.7135 20 29.94V32H22V29.94C24.0279 29.7135 25.9185 28.8042 27.3613 27.3613C28.8042 25.9185 29.7135 24.0279 29.94 22H32V20H29.94ZM21 28C17.13 28 14 24.87 14 21C14 17.13 17.13 14 21 14C24.87 14 28 17.13 28 21C28 24.87 24.87 28 21 28Z" fill="white"/>
</g>
<defs>
<filter id="filter0_d_0_76" x="0" y="0" width="42" height="42" filterUnits="userSpaceOnUse" color-interpolation-filters="sRGB">
<feFlood flood-opacity="0" result="BackgroundImageFix"/>
<feColorMatrix in="SourceAlpha" type="matrix" values="0 0 0 0 0 0 0 0 0 0 0 0 0 0 0 0 0 0 127 0" result="hardAlpha"/>
<feOffset/>
<feGaussianBlur stdDeviation="5"/>
<feComposite in2="hardAlpha" operator="out"/>
<feColorMatrix type="matrix" values="0 0 0 0 0 0 0 0 0 0 0 0 0 0 0 0 0 0 0.35 0"/>
<feBlend mode="normal" in2="BackgroundImageFix" result="effect1_dropShadow_0_76"/>
<feBlend mode="normal" in="SourceGraphic" in2="effect1_dropShadow_0_76" result="shape"/>
</filter>
</defs>
</svg>
